<?xml version="1.0" standalone="no"?>
<!DOCTYPE svg PUBLIC "-//W3C//DTD SVG 20010904//EN"
 "http://www.w3.org/TR/2001/REC-SVG-20010904/DTD/svg10.dtd">
<svg version="1.0" xmlns="http://www.w3.org/2000/svg"
 width="512.000000pt" height="512.000000pt" viewBox="0 0 512.000000 512.000000"
 preserveAspectRatio="xMidYMid meet">
<metadata>
Created by potrace 1.11, written by Peter Selinger 2001-2013
</metadata>
<g transform="translate(0.000000,512.000000) scale(0.100000,-0.100000)"
fill="#000000" stroke="none">
<path d="M2125 5101 c-52 -13 -104 -54 -128 -101 -20 -40 -22 -60 -21 -190 0
-162 6 -182 67 -236 20 -17 56 -37 81 -44 l46 -13 0 -112 0 -113 -82 -21 c-46
-12 -94 -26 -108 -31 -14 -6 -34 -11 -45 -13 -11 -2 -27 -7 -35 -10 -8 -3 -46
-17 -85 -31 -112 -40 -135 -50 -135 -59 0 -4 -4 -6 -8 -3 -19 12 -318 -162
-409 -239 -7 -5 -18 -14 -25 -20 -121 -92 -290 -260 -381 -377 -164 -210 -285
-447 -370 -723 -26 -83 -47 -186 -41 -196 3 -5 1 -9 -5 -9 -5 0 -8 -8 -6 -17
1 -10 -1 -28 -6 -39 -13 -36 -23 -189 -23 -344 0 -124 4 -194 19 -330 3 -29
31 -159 45 -212 21 -80 29 -105 49 -163 12 -33 23 -64 25 -70 2 -5 10 -26 19
-46 9 -20 17 -42 19 -50 2 -8 6 -16 9 -19 3 -3 23 -41 44 -85 22 -44 45 -86
52 -93 7 -8 11 -17 8 -22 -3 -5 -2 -10 2 -12 5 -1 34 -42 66 -90 78 -116 142
-196 241 -298 84 -87 205 -198 235 -214 14 -9 94 -68 128 -96 7 -6 15 -10 17
-10 3 0 29 -15 58 -34 163 -104 489 -237 643 -262 6 -1 12 -3 15 -4 15 -5 82
-18 150 -27 72 -10 562 -10 620 0 25 4 56 9 70 12 14 3 39 8 55 11 17 2 48 10
70 16 22 6 48 13 58 15 62 11 265 86 362 134 33 16 64 29 68 29 4 0 13 5 20
10 7 6 57 38 112 70 125 75 139 84 145 90 3 3 33 27 66 53 81 61 282 262 357
357 73 91 180 250 170 250 -5 0 -3 4 3 8 39 26 191 377 220 507 1 6 9 37 17
70 8 33 18 80 22 105 4 25 9 54 11 65 19 89 25 456 12 600 -4 39 -8 70 -8 70
-2 0 -5 16 -14 65 -4 19 -8 40 -10 45 -1 6 -8 37 -15 70 -7 33 -16 65 -19 70
-4 6 -8 19 -9 30 -10 61 -78 228 -155 380 -43 85 -149 258 -167 275 -4 3 -25
30 -47 60 -40 54 -56 72 -132 155 -82 88 -82 69 3 181 42 54 82 107 90 117 8
9 28 41 45 70 24 44 29 62 26 104 -6 81 -42 123 -216 258 -36 27 -67 52 -70
56 -3 3 -25 17 -50 29 -33 17 -61 23 -103 23 -74 -1 -100 -18 -182 -118 -22
-27 -49 -59 -60 -71 -11 -12 -33 -39 -50 -60 -79 -99 -87 -106 -114 -99 -14 4
-39 13 -56 20 -63 29 -305 104 -387 120 -49 10 -52 18 -54 134 l-3 110 35 7
c51 9 119 59 140 102 15 30 18 64 18 192 0 145 -1 158 -23 193 -12 20 -44 50
-69 65 l-47 27 -425 1 c-234 1 -438 -1 -455 -5z m626 -1382 c30 -5 69 -11 86
-14 539 -85 1033 -507 1208 -1030 19 -57 37 -114 39 -127 3 -13 5 -23 6 -23 2
0 6 -22 15 -80 3 -22 8 -51 11 -65 10 -45 12 -354 3 -420 -19 -136 -29 -179
-69 -299 -31 -96 -108 -264 -121 -269 -5 -2 -9 -8 -9 -13 0 -11 -56 -98 -108
-167 -71 -93 -201 -224 -291 -292 -18 -14 -46 -35 -61 -48 -15 -12 -31 -22
-34 -22 -4 0 -30 -16 -59 -35 -28 -19 -56 -35 -60 -35 -5 0 -22 -9 -38 -21
-16 -11 -29 -17 -29 -13 0 3 -6 2 -13 -4 -11 -9 -107 -51 -132 -57 -5 -1 -19
-5 -30 -9 -65 -25 -125 -41 -185 -51 -19 -3 -42 -8 -50 -10 -8 -2 -49 -7 -90
-11 -389 -37 -747 48 -1049 251 -138 93 -304 252 -391 375 -14 19 -33 43 -43
54 -9 11 -17 26 -17 33 0 7 -4 13 -8 13 -7 0 -94 152 -98 170 0 3 -10 26 -22
52 -21 47 -68 188 -76 230 -35 174 -40 221 -40 378 1 169 13 274 45 394 6 23
13 48 14 56 16 71 83 228 139 325 42 73 131 200 175 248 51 56 153 157 179
177 95 74 189 140 200 140 6 0 12 3 12 8 0 4 28 21 63 37 34 17 64 33 65 38 2
4 8 7 14 7 5 0 24 6 41 14 32 14 64 26 82 32 184 58 213 65 335 81 25 3 47 7
49 9 7 7 290 1 342 -7z"/>
<path d="M1355 3080 c-11 -4 -23 -6 -27 -4 -12 8 -78 -66 -80 -89 0 -12 -2
-29 -3 -37 -2 -24 14 -63 38 -90 18 -20 174 -162 212 -192 30 -25 63 -53 90
-76 17 -15 46 -39 66 -54 19 -14 55 -44 80 -67 24 -22 47 -41 50 -41 4 0 20
-13 37 -28 17 -16 47 -42 68 -58 20 -16 42 -34 48 -39 6 -6 36 -30 66 -55 30
-25 60 -49 66 -55 6 -5 31 -27 56 -48 30 -25 49 -51 57 -78 60 -198 250 -324
440 -291 133 24 238 99 293 213 27 55 31 79 33 169 2 95 -10 136 -62 216 -33
51 -108 121 -125 117 -4 -2 -8 0 -8 5 0 10 -65 36 -120 49 -23 5 -141 3 -151
-2 -9 -6 -385 186 -425 216 -6 5 -14 6 -17 2 -4 -3 -7 -1 -7 6 0 7 -4 10 -9 7
-5 -4 -11 -3 -13 1 -3 8 -51 34 -303 165 -243 126 -310 152 -350 138z"/>
</g>
</svg>
